<svg xmlns="http://www.w3.org/2000/svg" viewBox="0 0 291.59 340.77"><defs><style>.cls-1{fill:#efaa29;}.cls-1,.cls-8{stroke:#000;}.cls-1,.cls-10,.cls-12,.cls-2,.cls-7,.cls-8,.cls-9{stroke-miterlimit:10;}.cls-2{fill:#72c8f1;}.cls-10,.cls-12,.cls-2,.cls-7,.cls-9{stroke:#231f20;}.cls-3{font-size:27px;font-family:MyriadPro-Regular, Myriad Pro;}.cls-3,.cls-4{fill:#231f20;}.cls-5{fill:#fff;}.cls-6,.cls-7{fill:#d2edf3;}.cls-8{fill:#ccc;}.cls-10,.cls-11,.cls-12,.cls-9{fill:#cb9831;}.cls-10{stroke-linecap:round;stroke-width:6px;}.cls-12{stroke-width:0.25px;}</style></defs><title>logo4</title><g id="Layer_2" data-name="Layer 2"><path class="cls-1" d="M316,367.32,199.46,464.16c76.35,75.12,173.45,61.25,233.11,0Z" transform="translate(-170.22 -205.73)"/><path class="cls-2" d="M424.76,278.93c-5.17.4-21.6,123.26,7.81,185.23L316,367.32l108.22-88.39" transform="translate(-170.22 -205.73)"/><text class="cls-3" transform="translate(118.09 201.7)">1010<tspan x="-27.7" y="32.4">10101010</tspan><tspan x="-69.25" y="64.8">10101010101010</tspan><tspan x="-34.63" y="97.2">101101010</tspan></text><path class="cls-4" d="M393.53,383.43h0a2.12,2.12,0,0,0-2.6,2.82h0a2.12,2.12,0,0,1-3.41,2.35h0A2.12,2.12,0,0,0,384,390h0a2.12,2.12,0,0,1-4.09.63h0a2.12,2.12,0,0,0-3.83-.26h0a2.12,2.12,0,0,1-4-1.21h0a2.12,2.12,0,0,0-3.34-1.9h0a2.12,2.12,0,0,1-3-2.81h0a2.12,2.12,0,0,0-2.18-3.16h0a2.12,2.12,0,0,1-1.53-3.85h0a2.12,2.12,0,0,0-.59-3.79h0a2.12,2.12,0,0,1,.29-4.13h0a2.12,2.12,0,0,0,1.12-3.67h0a2.12,2.12,0,0,1,2.05-3.6h0a2.12,2.12,0,0,0,2.6-2.82h0a2.12,2.12,0,0,1,3.41-2.35h0a2.12,2.12,0,0,0,3.57-1.42h0a2.12,2.12,0,0,1,4.09-.64h0a2.12,2.12,0,0,0,3.83.27h0a2.12,2.12,0,0,1,4,1.21h0a2.12,2.12,0,0,0,3.33,1.9h0a2.12,2.12,0,0,1,3.05,2.8h0a2.13,2.13,0,0,0,2.18,3.17h0a2.12,2.12,0,0,1,1.53,3.85h0A2.12,2.12,0,0,0,397,372h0a2.12,2.12,0,0,1-.29,4.13h0a2.12,2.12,0,0,0-1.12,3.67h0A2.12,2.12,0,0,1,393.53,383.43Z" transform="translate(-170.22 -205.73)"/><ellipse class="cls-5" cx="209.59" cy="166.82" rx="5.06" ry="6.11"/><path class="cls-4" d="M398.91,350.8l-1.11-.49a1.38,1.38,0,0,0-1.92,1.46l.17,1.2a1.38,1.38,0,0,1-2.47,1l-.72-1a1.39,1.39,0,0,0-2.4.3l-.45,1.13a1.38,1.38,0,0,1-2.65-.36l-.13-1.21a1.38,1.38,0,0,0-2.22-.93l-1,.75a1.37,1.37,0,0,1-2.11-1.63l.48-1.12A1.37,1.37,0,0,0,381,348l-1.2.17a1.38,1.38,0,0,1-1-2.48l1-.72a1.38,1.38,0,0,0-.3-2.39l-1.13-.45a1.38,1.38,0,0,1,.36-2.65l1.21-.13a1.39,1.39,0,0,0,.93-2.23l-.75-.95a1.38,1.38,0,0,1,1.64-2.12l1.11.49a1.38,1.38,0,0,0,1.92-1.46l-.18-1.2a1.38,1.38,0,0,1,2.48-1l.72,1a1.38,1.38,0,0,0,2.39-.3l.45-1.13a1.38,1.38,0,0,1,2.65.36l.13,1.21a1.39,1.39,0,0,0,2.23.93l.95-.75a1.38,1.38,0,0,1,2.12,1.63l-.49,1.12a1.37,1.37,0,0,0,1.46,1.91l1.2-.17a1.38,1.38,0,0,1,1,2.48l-1,.72a1.38,1.38,0,0,0,.3,2.39l1.13.45a1.38,1.38,0,0,1-.36,2.65l-1.2.13a1.39,1.39,0,0,0-.94,2.23l.76.95A1.38,1.38,0,0,1,398.91,350.8Z" transform="translate(-170.22 -205.73)"/><ellipse class="cls-5" cx="220.07" cy="136.71" rx="3.31" ry="3.99"/><path class="cls-6" d="M309,347.45v0l-16.43,0,23.41,19,23.54-18.94-25.77,0Z" transform="translate(-170.22 -205.73)"/><path class="cls-7" d="M278.85,295.05l9.85,17.1,2.39-4.12,22.8-39.36,22.69,39.42,5.26,9.14,15.66-23,17,25.05c19.72-15.93,39.36-31.84,49.74-40.4-73.73-7.14-108.31-46.81-108.31-46.81-41.68,43.48-107.86,46.81-107.86,46.81l54.53,44.2,1.1-1.91Z" transform="translate(-170.22 -205.73)"/><path class="cls-7" d="M364.74,325.57l2.19-2.44-2.56-.07-.84.19,1-3.16-3.62-1.49,1.49-2.23-3,.47-1.9-2.51,1.81-2.7,1-2.32s-2.69.37-2.78,0-.84-4.74-.84-4.74l.79-1.67,13.36,19.32,3.59-2.89-17-25.05-15.66,23-5.26-9.14-22.69-39.42L291.09,308l-2.39,4.12-9.85-17.1-15.16,26.17-1.1,1.91,10.82,8.77,3-6.8.61-2.42-1-2.37,2.47-2.25-.22-2.43,2.43-1.15-1.52-2.15,2.07-1.6-1.9-2.45,1.29-2.42-2.45-.8,1.63-1.43h-2.39l2.64-5.88,7.58,13.82-12.07,19.65-1.52,1.23,18.53,15,16.43,0v0h4.76l25.77,0,27.28-22ZM346.19,338.7l-2.91-.8.27-2.25-2.44-.6-2.54-.5.62-2.66-3-.25-3.57,1.07.42-4.81-.65-3.91-4,.47s-6,2.17-6.79,1.92S317,324,317,324l5.51-4.52-3.09,1.18,1.73-3.53-3.34,1.73-5.39-3.09,6.63-6-3.84.68-3.72-.5L315,308.1l-.09-5.11.67-.31-1.9-.71.51-2.79,1.46-2.69,1.58-1.95-2.32-.75,1.2-3.15-1.4-2.11,1-3h-2.05l.76-3.29-1.86-2.6,1.36-2.19,34.7,61.22Z" transform="translate(-170.22 -205.73)"/><path class="cls-6" d="M357.49,305.34s.74,4.36.83,4.73,2.79,0,2.79,0l-1,2.33-1.81,2.69,1.9,2.51,3-.46-1.49,2.23,3.62,1.48-1,3.16.84-.18,2.56.07-2.19,2.43,2.08-.06,6.36-5.13-16.43-24.58Z" transform="translate(-170.22 -205.73)"/><polygon class="cls-6" points="105.37 125.48 117.44 105.83 109.86 92.02 107.22 97.89 109.61 97.91 107.98 99.34 110.43 100.14 109.14 102.56 111.04 105.01 108.97 106.6 110.49 108.75 108.06 109.91 108.28 112.33 105.81 114.58 106.8 116.95 106.19 119.37 102.62 125.71 104.57 127.29 105.37 125.48"/><polyline class="cls-8" points="143.46 62.94 143.46 44 150.95 50.17 145.79 50.39 152.05 56.33 143.08 56.5"/><path class="cls-2" d="M207.85,278.93c8.18,11.44,19,134.3-8.39,185.23L316,367.32Z" transform="translate(-170.22 -205.73)"/><g id="light"><g id="lightbulb"><path class="cls-9" d="M230.49,364.66a15.36,15.36,0,0,1,16.14-15.34c7.17.36,13.9,6.84,14.51,14a15.34,15.34,0,0,1-1.79,8.67,36.52,36.52,0,0,0-4.74,17.39v.8H237.08v-.46a37.93,37.93,0,0,0-4.79-17.83A15.27,15.27,0,0,1,230.49,364.66Z" transform="translate(-170.22 -205.73)"/><line class="cls-10" x1="67.81" y1="187.91" x2="83.44" y2="187.91"/><line class="cls-10" x1="67.81" y1="190.38" x2="83.44" y2="190.38"/><line class="cls-10" x1="67.81" y1="192.85" x2="83.44" y2="192.85"/></g><path class="cls-11" d="M235.52,359.46s2.87-5.55,6.93-5.69" transform="translate(-170.22 -205.73)"/><path class="cls-4" d="M242.43,353.29s0-.08,0-.1A.15.15,0,0,0,242.43,353.29Z" transform="translate(-170.22 -205.73)"/><polygon class="cls-4" points="71.97 147.78 71.97 147.74 71.95 147.83 71.97 147.78"/><path class="cls-4" d="M242,353.53c0,.14.08,0,.12,0v-.08C242.06,353.48,242,353.56,242,353.53Z" transform="translate(-170.22 -205.73)"/><path class="cls-4" d="M241.8,353.24c0,.05,0,.05,0,0h0Z" transform="translate(-170.22 -205.73)"/><path class="cls-4" d="M241.82,353.24s0-.05,0,0Z" transform="translate(-170.22 -205.73)"/><path class="cls-4" d="M241.71,353.28l0,0s0,0,0-.06S241.69,353.23,241.71,353.28Z" transform="translate(-170.22 -205.73)"/><path class="cls-4" d="M241.7,353.39v0S241.7,353.35,241.7,353.39Z" transform="translate(-170.22 -205.73)"/><path class="cls-4" d="M241.74,353.32l0,.05s0,.07,0,0S241.73,353.35,241.74,353.32Z" transform="translate(-170.22 -205.73)"/><path class="cls-4" d="M241.77,353.34s0,0,0,.1S241.83,353.31,241.77,353.34Z" transform="translate(-170.22 -205.73)"/><path class="cls-4" d="M242,353.68l0,0,0-.05S242,353.63,242,353.68Z" transform="translate(-170.22 -205.73)"/><path class="cls-4" d="M241.5,353.25a.3.3,0,0,0,0,.11v0S241.51,353.29,241.5,353.25Z" transform="translate(-170.22 -205.73)"/><path class="cls-4" d="M241.54,353.36l0,.06S241.54,353.39,241.54,353.36Z" transform="translate(-170.22 -205.73)"/><polygon class="cls-4" points="71.5 147.82 71.54 147.7 71.49 147.82 71.5 147.82"/><polygon class="cls-4" points="71.14 147.55 71.15 147.48 71.13 147.59 71.14 147.55"/><path class="cls-4" d="M241.27,353.32c0-.06,0-.09,0-.13s0,.07,0,.12S241.24,353.28,241.27,353.32Z" transform="translate(-170.22 -205.73)"/><path class="cls-4" d="M241.18,353.38a.64.64,0,0,0,0-.07S241.19,353.35,241.18,353.38Z" transform="translate(-170.22 -205.73)"/><path class="cls-4" d="M241.45,353.42s0-.06,0-.07l0,.08Z" transform="translate(-170.22 -205.73)"/><path class="cls-4" d="M241.44,353.43Z" transform="translate(-170.22 -205.73)"/><path class="cls-4" d="M241.45,353.42Z" transform="translate(-170.22 -205.73)"/><path class="cls-4" d="M241.62,353.48c0,.06,0,.12,0,.18S241.6,353.56,241.62,353.48Z" transform="translate(-170.22 -205.73)"/><path class="cls-4" d="M241.49,353.52h0s0,0,0-.08Z" transform="translate(-170.22 -205.73)"/><polygon class="cls-4" points="71.26 147.83 71.27 147.79 71.26 147.79 71.26 147.83"/><path class="cls-4" d="M241.27,353.44s0,.05,0,.06h.07S241.29,353.43,241.27,353.44Z" transform="translate(-170.22 -205.73)"/><path class="cls-4" d="M241.35,353.44h0S241.36,353.46,241.35,353.44Z" transform="translate(-170.22 -205.73)"/><path class="cls-4" d="M241,353.55v0Z" transform="translate(-170.22 -205.73)"/><path class="cls-4" d="M241.3,353.52s0,0,0,0l0,0Z" transform="translate(-170.22 -205.73)"/><path class="cls-4" d="M241.14,353.43l0,0S241.14,353.41,241.14,353.43Z" transform="translate(-170.22 -205.73)"/><path class="cls-4" d="M241.34,353.43h0S241.33,353.41,241.34,353.43Z" transform="translate(-170.22 -205.73)"/><path class="cls-4" d="M241.34,353.43a.07.07,0,0,0,0,.05l0,0Z" transform="translate(-170.22 -205.73)"/><path class="cls-4" d="M241.15,354.09c0-.08,0-.16,0-.08a1.13,1.13,0,0,0-.16-.44.14.14,0,0,1,0,.11s.11.08.1.16,0,0-.08,0,0,.15,0,.28l0-.06S241.13,354.07,241.15,354.09Z" transform="translate(-170.22 -205.73)"/><path class="cls-4" d="M241.11,353.55h0l-.09-.09a.16.16,0,0,0,0,.1h.07Z" transform="translate(-170.22 -205.73)"/><path class="cls-4" d="M241.19,353.52c0,.09,0,.13,0,.22s0-.08,0-.12,0-.06-.05-.09l0,0,0,0h0v0s0,0,0,0h0l-.05.06S241.16,353.54,241.19,353.52Z" transform="translate(-170.22 -205.73)"/><path class="cls-4" d="M241.63,353.85v0Z" transform="translate(-170.22 -205.73)"/><path class="cls-4" d="M241.6,353.81s0-.05,0-.05,0,0,0,.07,0-.07,0-.1h0a.44.44,0,0,1-.09-.13A.84.84,0,0,0,241.6,353.81Z" transform="translate(-170.22 -205.73)"/><path class="cls-4" d="M241.4,353.68l0,.06,0,.06v0S241.41,353.72,241.4,353.68Z" transform="translate(-170.22 -205.73)"/><polygon class="cls-4" points="70.8 147.78 70.78 147.69 70.78 147.83 70.8 147.78"/><polygon class="cls-4" points="70.72 147.82 70.7 147.74 70.7 147.79 70.72 147.82"/><path class="cls-4" d="M238.13,356.65v0Z" transform="translate(-170.22 -205.73)"/><path class="cls-4" d="M238.21,356.57l0,0Z" transform="translate(-170.22 -205.73)"/><path class="cls-4" d="M239.24,354.4c-.06,0-.15-.12-.1,0l.06.07S239.22,354.39,239.24,354.4Z" transform="translate(-170.22 -205.73)"/><path class="cls-4" d="M238.57,355.58h0l0-.07Z" transform="translate(-170.22 -205.73)"/><path class="cls-4" d="M238.8,355.86l-.06,0Z" transform="translate(-170.22 -205.73)"/><path class="cls-4" d="M237.78,357.17l.06.07S237.81,357.2,237.78,357.17Z" transform="translate(-170.22 -205.73)"/><path class="cls-4" d="M240.21,353.87a.12.12,0,0,0-.07,0S240.23,353.94,240.21,353.87Z" transform="translate(-170.22 -205.73)"/><path class="cls-4" d="M237.49,356a.05.05,0,0,0,0,0S237.51,356,237.49,356Z" transform="translate(-170.22 -205.73)"/><path class="cls-4" d="M240.08,353.87l0,0s0,0,0,0S240.07,353.81,240.08,353.87Z" transform="translate(-170.22 -205.73)"/><path class="cls-4" d="M236.39,359h0Z" transform="translate(-170.22 -205.73)"/><path class="cls-4" d="M235.29,359.1s0,0,0,0S235.28,359.08,235.29,359.1Z" transform="translate(-170.22 -205.73)"/><path class="cls-4" d="M240.63,353.62s0,0,0,0Z" transform="translate(-170.22 -205.73)"/><path class="cls-4" d="M240.83,353.91a.08.08,0,0,0,0,0A.08.08,0,0,1,240.83,353.91Z" transform="translate(-170.22 -205.73)"/><path class="cls-4" d="M240.19,354.43h0Z" transform="translate(-170.22 -205.73)"/><path class="cls-4" d="M240.67,353.64h0Z" transform="translate(-170.22 -205.73)"/><path class="cls-4" d="M240.65,353.61h0S240.66,353.59,240.65,353.61Z" transform="translate(-170.22 -205.73)"/><path class="cls-4" d="M240.61,353.63h0Z" transform="translate(-170.22 -205.73)"/><path class="cls-4" d="M236.88,357.81Z" transform="translate(-170.22 -205.73)"/><polygon class="cls-4" points="69.21 149.64 69.21 149.64 69.21 149.64 69.21 149.64"/><path class="cls-4" d="M239.43,355.45c-.05-.1,0-.09,0-.08l-.17-.2Z" transform="translate(-170.22 -205.73)"/><path class="cls-4" d="M238,356.86l.08,0c.07.12,0,.11.12.16-.2-.19.08-.12-.12-.31l.06,0s0,0,0,0-.12-.16-.05-.18a.1.1,0,0,1,.09,0l0-.08s0,0,0,0l0-.07h0l-.07-.13s0,0,0,0l0-.08c.06,0,.09.11.06.12.22.16,0-.07.14,0v0c.13.09.11,0,.21.07s-.24-.11-.25-.19,0,0,0-.05.07,0,.08,0l.09.09s-.05-.09-.08-.14.11.05.18.1-.14-.08-.11-.15.05,0,0-.15,0,.06.08.08l0-.09s0,0,0,0-.09-.09-.08-.14.19.09.12-.06a.44.44,0,0,1,.08.1.77.77,0,0,0-.06-.24l.09,0a.44.44,0,0,1-.17-.25l-.09-.06v-.1l.07.1v0a.27.27,0,0,1,.12.15l-.07-.05a1.43,1.43,0,0,0,.14.2s0,0,0,0l0,0s0,0,0-.05l.1.1,0,0h.12a.89.89,0,0,1-.12-.44,1,1,0,0,0,.18.23c-.1-.08,0,.09-.07.1s.06,0,.07.06v-.14c.06.08.06.05.1.07-.14-.15,0-.15-.05-.22s.08.11,0,.13c.13.09-.1-.22,0-.15s0,0,0,0,.06-.06.08,0h0a.17.17,0,0,0,.06-.26l.13.2-.24-.53c.08.12.32.38.32.48s.06,0,0-.05a.75.75,0,0,1-.14-.17,1.21,1.21,0,0,0,.2.14s-.15-.22-.13-.23l.14.21-.08-.22a.7.7,0,0,0,.16.2s0,0,0-.05l0,0c.08,0-.12-.3-.05-.33s.14.25.18.25a2.45,2.45,0,0,1-.23-.62l0,0v-.09c.06.16.18.52.23.66s0,.06.08,0a.08.08,0,0,1,0,.1l.1,0c-.08-.11,0-.15-.08-.24v.17c-.08-.12-.15-.35-.08-.37s.11.21.14.25,0-.11,0-.08V355c.06,0,0-.18.06-.09s.13.13.09.06a5,5,0,0,1-.39-.64,2,2,0,0,1,.2.14c.09.1.11.27.18.35a.23.23,0,0,1,0-.09s0,.1.07.07.07,0,0-.11,0,0,.08,0a.65.65,0,0,1-.1-.33.17.17,0,0,0,.06.08c.06,0,.12,0,.18,0a.23.23,0,0,1,.08.11s0-.07,0-.08,0,0,0,.15a.24.24,0,0,1,0-.17c-.06-.11-.07,0-.08.06a.71.71,0,0,1-.07-.43c0-.06.07.09.07.06s0-.31.1-.23.08.2.12.27-.09,0-.12,0l.06,0s0,.07,0,0,.18,0,.28,0a.17.17,0,0,0,0-.12v0c-.06-.08,0-.14-.05-.16s0-.18.08-.15l0,.11s0-.05,0,0,.12.12.09,0l-.06-.06c0-.08,0-.21.07-.19s0,0-.08-.11c.08.16-.12,0,0,.19-.09-.14-.08,0-.17-.15s0,.06,0,.06v0h0a.1.1,0,0,1,0,.05c0,.09,0,.11,0,.17s0-.05,0-.09v.08c0-.08-.11-.11-.08-.18h0s-.09,0-.1,0,0,.11,0,0l0,.08v0c-.08,0-.08.2-.23.09s0,.07-.07.06l-.05-.06s-.12,0-.09.06c-.13-.17-.16,0-.23,0l.05.09s-.06.06-.08.12l.05.07c0,.09-.13,0-.18,0s0,0,0,0c-.18-.13-.07.21-.2.13s0,0,0,0h0l0,0,0,0a.08.08,0,0,0,0,.06l-.06-.07h0s0,.05.06.1a.2.2,0,0,0,0,.07c-.1-.12,0,.07-.13,0,0,.07,0,.1.05.25,0,0,0,0,0,0s-.06,0,0,0l-.08-.09.06.16a.24.24,0,0,1-.13-.16c0,.15,0,.07,0,.22l-.05-.06s0,.12,0,.07-.2.14-.38.11c.17.16-.11-.05,0,.09a.22.22,0,0,1-.09-.1c0,.09-.13,0-.06.14,0,0,0-.07-.07-.09s0,.05,0,0a.06.06,0,0,1,0-.06c-.05,0,.06.18.16.3-.07,0-.08,0,0,.07s-.09-.06-.07-.1-.16,0-.07.13,0,0,0,0-.05,0-.07.07h0c.09.12,0,.05,0,.09h0c-.14,0,0,.06-.14,0l.07.07c.13.15-.14,0-.13.06l0,0c0,.07-.25-.14-.29-.14s0,0,0,0c-.15,0,.08.09.06.15s-.11-.13-.15-.11.08.23-.05.18c.05,0,.09.05.1.1s-.21-.06-.12.08l0,0c0,.05,0,.12,0,.19-.27-.2,0,.25-.24,0l0,.08,0,0c-.06,0,0,.09,0,.16a.11.11,0,0,1-.05,0c-.11,0-.1,0,0,.19l-.08-.06c0,.05-.2,0-.17.14l0,0c0,.15-.36,0-.1.26l0,.1c.08,0,.12.11.18.12s-.13,0-.12,0h0c-.14-.13-.12,0-.22,0-.09.13-.26.19-.36.31l.13.07,0,0s-.1-.06-.08-.08,0,.09,0,.11-.12-.13-.14-.11v0h0c0,.05.08.09.05.12s-.08,0-.09,0,0,0,0,0l0,.05.11,0c0,.06,0,.05.08.1-.19-.08-.2.16-.27.14s0,.12,0,.15.14.07.1.1c-.21-.17-.14,0-.32-.08.12,0,0,.12.14.18,0,0-.09-.05-.15-.07s-.17.12-.19.23a.38.38,0,0,1,.11.08l-.18,0s.17.12,0,.09l.08,0c-.26.09-.1.43-.49.46.08,0,.07,0,.06.05s.08,0,.12.06h-.16c.11.08,0,.09.07.16v0c.11.1.31.11.48.21-.13-.12.27,0,.09-.15,0,0,0,0,.09.06s-.07-.08,0-.1l0,0c0-.1.12-.1.23-.17l-.09,0s0,0,.08,0,0,0-.16-.05c.18.07.09-.15.29-.06,0,0-.1,0-.08-.08l.06,0-.06-.05s.09,0,.13,0v0c.07,0,0-.09.05-.09h-.05c0-.12.15-.18.1-.33l0,0c0-.11.07,0,.09-.12h0s0-.07,0-.09.11,0,.14.08c0-.12,0-.07-.14-.21l.07,0c0-.05-.07-.07-.06-.12s.1,0,.15.12-.06-.2.16-.1c-.14-.15-.14,0-.16,0s-.11-.12-.07-.13.24.11.28.05,0,0,0,0,0-.09.06-.06c-.09-.09,0,0-.09-.13v.07c0-.05-.14-.19,0-.18a.35.35,0,0,1,0,.08c.05,0,0,0,.05,0s0,.08,0,.19,0-.13.08,0c-.16-.16.07,0,0-.18l.08.06s0-.06,0-.07l.09.1c-.06-.1.12,0,.09-.07s-.1-.06-.17-.07c-.05-.16.23.1.26,0s-.08,0-.1,0a.17.17,0,0,1,.12,0c0-.07-.09-.05-.11-.11s0-.06,0-.1l.08.06c.09,0-.15-.15,0-.16l.08.11v-.05l.08.07c0-.08,0-.08,0-.09s-.14-.11-.12-.14.07.06.09,0,.09.1,0,.06l.06.07c.07,0,.05,0,.06-.06h0l-.05-.14a.23.23,0,0,1,.07.07s0-.06,0-.08.12.1.13.15l0-.11s.1,0,.12.06-.06-.17,0-.17l0,0c.05,0,.15,0,.1-.11l.13.07c0-.06-.16-.09-.15-.18s.1.07.14.08-.11-.2,0-.16S238,356.85,238,356.86Zm.33-.45s0,.08,0,0S238.26,356.4,238.29,356.41Zm.47-.75s0,0,0,0S238.73,355.65,238.76,355.66Zm1.73-1.9h0S240.47,353.75,240.49,353.76Zm.07,0s0,0,0,0,0,0,0,0S240.55,353.8,240.56,353.78Zm-4.3,3.78h0S236.28,357.58,236.26,357.56Z" transform="translate(-170.22 -205.73)"/><path class="cls-4" d="M238.77,355.82l0,0S238.75,355.82,238.77,355.82Z" transform="translate(-170.22 -205.73)"/><polygon class="cls-4" points="67.55 151.43 67.55 151.43 67.56 151.44 67.55 151.43"/><path class="cls-4" d="M240.19,354.87s0,0,0,0S240.18,354.87,240.19,354.87Z" transform="translate(-170.22 -205.73)"/><path class="cls-4" d="M240.78,353.51l0,0s0,0,0,0S240.77,353.51,240.78,353.51Z" transform="translate(-170.22 -205.73)"/><path class="cls-4" d="M241.25,354h0v-.05A0,0,0,0,0,241.25,354Z" transform="translate(-170.22 -205.73)"/><path class="cls-4" d="M240.91,353.8c0,.08.05,0,.06,0h0C240.94,353.71,240.93,353.76,240.91,353.8Z" transform="translate(-170.22 -205.73)"/><path class="cls-4" d="M241,353.82h0S241,353.8,241,353.82Z" transform="translate(-170.22 -205.73)"/><path class="cls-4" d="M240.61,353.7s0-.1,0-.07S240.57,353.78,240.61,353.7Z" transform="translate(-170.22 -205.73)"/><polygon class="cls-4" points="70.8 148.32 70.76 148.23 70.78 148.31 70.8 148.32"/><path class="cls-4" d="M240.82,354.05h.05s0,0,0,0S240.81,354,240.82,354.05Z" transform="translate(-170.22 -205.73)"/><path class="cls-4" d="M240.87,354s0,0,0,0Z" transform="translate(-170.22 -205.73)"/><polygon class="cls-4" points="70.76 148.36 70.75 148.35 70.72 148.35 70.76 148.36"/><path class="cls-4" d="M240.44,354.19l0,0s0,0,0,0A.1.1,0,0,0,240.44,354.19Z" transform="translate(-170.22 -205.73)"/><path class="cls-4" d="M240.67,354.39s0,0,0-.06l0,.11Z" transform="translate(-170.22 -205.73)"/><path class="cls-4" d="M240.57,354.46s0,.11,0,.09S240.62,354.47,240.57,354.46Z" transform="translate(-170.22 -205.73)"/><polygon class="cls-4" points="69.75 148.87 69.76 148.87 69.66 148.69 69.75 148.87"/><path class="cls-4" d="M239.79,355.29c.07,0-.06-.12,0-.09s-.06,0-.07-.06S239.71,355.18,239.79,355.29Z" transform="translate(-170.22 -205.73)"/><path class="cls-4" d="M239.73,355.14v0A0,0,0,0,0,239.73,355.14Z" transform="translate(-170.22 -205.73)"/><polygon class="cls-4" points="64.91 153.42 64.86 153.43 64.93 153.44 64.91 153.42"/><path class="cls-4" d="M235.23,359.27l-.11,0,.09.07S235.21,359.27,235.23,359.27Z" transform="translate(-170.22 -205.73)"/><path class="cls-4" d="M238.54,356.54l0,0s0,0-.05,0Z" transform="translate(-170.22 -205.73)"/><polygon class="cls-4" points="67.97 151.03 67.98 151.03 67.89 150.96 67.97 151.03"/><path class="cls-4" d="M238.08,357.11s0,0,0-.05S238,357,238.08,357.11Z" transform="translate(-170.22 -205.73)"/><path class="cls-12" d="M243.86,389.69s-5.24-15.19-2.67-22.41a1.46,1.46,0,0,1,2.08-.81c2.52,1.44,3.14,2.88,3,4a1.37,1.37,0,0,1-2.68.14c-.32-1.31,0-3,3-4.41a1.63,1.63,0,0,1,2,.48c2.18,3.4,1.58,14.16-2.78,23" transform="translate(-170.22 -205.73)"/><line class="cls-12" x1="56.37" y1="141.28" x2="62.36" y2="146.88"/><line class="cls-12" x1="64.25" y1="137.14" x2="67.41" y2="143.58"/><line class="cls-12" x1="74.68" y1="135.5" x2="74.68" y2="142.16"/><line class="cls-12" x1="85.14" y1="135.96" x2="82.32" y2="142.84"/><line class="cls-12" x1="87.48" y1="146.11" x2="94.07" y2="140.72"/><line class="cls-12" x1="58.69" y1="152.75" x2="51.52" y2="149.13"/><line class="cls-12" x1="90.77" y1="150.89" x2="98.79" y2="147.38"/></g></g><g id="Layer_3" data-name="Layer 3"><path class="cls-5" d="M439.51,259.2s-45.35-.54-79.65-24l3.36-5s-1.8-21-47.21-24.53c-45.4,3.54-47.2,24.53-47.2,24.53l3.35,5c-34.29,23.45-79.65,24-79.65,24L178,287.06l15.52-5.28,4.22,13.75,9.22-16.28c37-3.47,87.32-29.56,86.64-39.91l-5.78.16c8.75-10.81,25.35-12.88,28.21-11.89,2.87-1,19.47,1.08,28.22,11.89l-5.78-.16c-.68,10.35,49.65,36.44,86.64,39.91l9.22,16.28,4.21-13.75,15.53,5.28Z" transform="translate(-170.22 -205.73)"/><path class="cls-5" d="M457.57,470.92l-5.51-.72c5.45-5.28,9.75-19.81,9.75-19.81L444,455.17s-.33-1.32-3.3-10.89c-1.16,4.62-15.52,24.11-15.52,24.11,15.53,10.25-58.43,54.06-91,52.84-6.88-8.7-15.73-6.5-17.67-5.8h0s-11-3.72-18.62,5.8c-32.57,1.22-106.52-42.59-91-52.84,0,0-14.37-19.49-15.52-24.11-3,9.57-3.31,10.89-3.31,10.89l-17.83-4.78s4.29,14.53,9.74,19.81l-5.51.72a2.41,2.41,0,0,0-2,3.13c7.5,24.18,64.78,71.72,133.64,72.45,0,0,1.6-9.25,9.88-7.93,8.28-1.32,9.89,7.93,9.89,7.93,68.86-.73,126.13-48.27,133.64-72.45A2.41,2.41,0,0,0,457.57,470.92Z" transform="translate(-170.22 -205.73)"/></g></svg>