<svg xmlns="http://www.w3.org/2000/svg" viewBox="0 0 291.59 340.77"><defs><style>.cls-1{fill:#efaa29;}.cls-1,.cls-6{stroke:#000;}.cls-1,.cls-2,.cls-6,.cls-7,.cls-8,.cls-9{stroke-miterlimit:10;}.cls-2,.cls-5{fill:#fff;}.cls-2,.cls-7,.cls-8,.cls-9{stroke:#231f20;}.cls-3{font-size:27px;font-family:MyriadPro-Regular, Myriad Pro;}.cls-3,.cls-4{fill:#231f20;}.cls-6{fill:#ccc;}.cls-7,.cls-8,.cls-9{fill:none;}.cls-8{stroke-linecap:round;stroke-width:6px;}.cls-9{stroke-width:0.25px;}.cls-10{fill:#686ab0;}.cls-11{fill:#6d6cb2;}</style></defs><title>logo3</title><g id="Layer_2" data-name="Layer 2"><path class="cls-1" d="M316,367.32,199.46,464.16c76.35,75.12,173.45,61.25,233.11,0Z" transform="translate(-170.22 -205.73)"/><path class="cls-2" d="M424.76,278.93c-5.17.4-21.6,123.26,7.81,185.23L316,367.32l108.22-88.39" transform="translate(-170.22 -205.73)"/><text class="cls-3" transform="translate(118.09 201.7)">1010<tspan x="-27.7" y="32.4">10101010</tspan><tspan x="-69.25" y="64.8">10101010101010</tspan><tspan x="-34.63" y="97.2">101101010</tspan></text><path class="cls-4" d="M393.53,383.43h0a2.12,2.12,0,0,0-2.6,2.82h0a2.12,2.12,0,0,1-3.41,2.35h0A2.12,2.12,0,0,0,384,390h0a2.12,2.12,0,0,1-4.09.63h0a2.12,2.12,0,0,0-3.83-.26h0a2.12,2.12,0,0,1-4-1.21h0a2.12,2.12,0,0,0-3.34-1.9h0a2.12,2.12,0,0,1-3-2.81h0a2.12,2.12,0,0,0-2.18-3.16h0a2.12,2.12,0,0,1-1.53-3.85h0a2.12,2.12,0,0,0-.59-3.79h0a2.12,2.12,0,0,1,.29-4.13h0a2.12,2.12,0,0,0,1.12-3.67h0a2.12,2.12,0,0,1,2.05-3.6h0a2.12,2.12,0,0,0,2.6-2.82h0a2.12,2.12,0,0,1,3.41-2.35h0a2.12,2.12,0,0,0,3.57-1.42h0a2.12,2.12,0,0,1,4.09-.64h0a2.12,2.12,0,0,0,3.83.27h0a2.12,2.12,0,0,1,4,1.21h0a2.12,2.12,0,0,0,3.33,1.9h0a2.12,2.12,0,0,1,3.05,2.8h0a2.13,2.13,0,0,0,2.18,3.17h0a2.12,2.12,0,0,1,1.53,3.85h0A2.12,2.12,0,0,0,397,372h0a2.12,2.12,0,0,1-.29,4.13h0a2.12,2.12,0,0,0-1.12,3.67h0A2.12,2.12,0,0,1,393.53,383.43Z" transform="translate(-170.22 -205.73)"/><ellipse class="cls-5" cx="209.59" cy="166.82" rx="5.06" ry="6.11"/><path class="cls-4" d="M398.91,350.8l-1.11-.49a1.38,1.38,0,0,0-1.92,1.46l.17,1.2a1.38,1.38,0,0,1-2.47,1l-.72-1a1.39,1.39,0,0,0-2.4.3l-.45,1.13a1.38,1.38,0,0,1-2.65-.36l-.13-1.21a1.38,1.38,0,0,0-2.22-.93l-1,.75a1.37,1.37,0,0,1-2.11-1.63l.48-1.12A1.37,1.37,0,0,0,381,348l-1.2.17a1.38,1.38,0,0,1-1-2.48l1-.72a1.38,1.38,0,0,0-.3-2.39l-1.13-.45a1.38,1.38,0,0,1,.36-2.65l1.21-.13a1.39,1.39,0,0,0,.93-2.23l-.75-.95a1.38,1.38,0,0,1,1.64-2.12l1.11.49a1.38,1.38,0,0,0,1.92-1.46l-.18-1.2a1.38,1.38,0,0,1,2.48-1l.72,1a1.38,1.38,0,0,0,2.39-.3l.45-1.13a1.38,1.38,0,0,1,2.65.36l.13,1.21a1.39,1.39,0,0,0,2.23.93l.95-.75a1.38,1.38,0,0,1,2.12,1.63l-.49,1.12a1.37,1.37,0,0,0,1.46,1.91l1.2-.17a1.38,1.38,0,0,1,1,2.48l-1,.72a1.38,1.38,0,0,0,.3,2.39l1.13.45a1.38,1.38,0,0,1-.36,2.65l-1.2.13a1.39,1.39,0,0,0-.94,2.23l.76.95A1.38,1.38,0,0,1,398.91,350.8Z" transform="translate(-170.22 -205.73)"/><ellipse class="cls-5" cx="220.07" cy="136.71" rx="3.31" ry="3.99"/><path class="cls-5" d="M309,347.45v0l-16.43,0,23.41,19,23.54-18.94-25.77,0Z" transform="translate(-170.22 -205.73)"/><path class="cls-2" d="M278.85,295.05l9.85,17.1,2.39-4.12,22.8-39.36,22.69,39.42,5.26,9.14,15.66-23,17,25.05c19.72-15.93,39.36-31.84,49.74-40.4-73.73-7.14-108.31-46.81-108.31-46.81-41.68,43.48-107.86,46.81-107.86,46.81l54.53,44.2,1.1-1.91Z" transform="translate(-170.22 -205.73)"/><path class="cls-2" d="M364.74,325.57l2.19-2.44-2.56-.07-.84.19,1-3.16-3.62-1.49,1.49-2.23-3,.47-1.9-2.51,1.81-2.7,1-2.32s-2.69.37-2.78,0-.84-4.74-.84-4.74l.79-1.67,13.36,19.32,3.59-2.89-17-25.05-15.66,23-5.26-9.14-22.69-39.42L291.09,308l-2.39,4.12-9.85-17.1-15.16,26.17-1.1,1.91,10.82,8.77,3-6.8.61-2.42-1-2.37,2.47-2.25-.22-2.43,2.43-1.15-1.52-2.15,2.07-1.6-1.9-2.45,1.29-2.42-2.45-.8,1.63-1.43h-2.39l2.64-5.88,7.58,13.82-12.07,19.65-1.52,1.23,18.53,15,16.43,0v0h4.76l25.77,0,27.28-22ZM346.19,338.7l-2.91-.8.27-2.25-2.44-.6-2.54-.5.62-2.66-3-.25-3.57,1.07.42-4.81-.65-3.91-4,.47s-6,2.17-6.79,1.92S317,324,317,324l5.51-4.52-3.09,1.18,1.73-3.53-3.34,1.73-5.39-3.09,6.63-6-3.84.68-3.72-.5L315,308.1l-.09-5.11.67-.31-1.9-.71.51-2.79,1.46-2.69,1.58-1.95-2.32-.75,1.2-3.15-1.4-2.11,1-3h-2.05l.76-3.29-1.86-2.6,1.36-2.19,34.7,61.22Z" transform="translate(-170.22 -205.73)"/><path class="cls-5" d="M357.49,305.34s.74,4.36.83,4.73,2.79,0,2.79,0l-1,2.33-1.81,2.69,1.9,2.51,3-.46-1.49,2.23,3.62,1.48-1,3.16.84-.18,2.56.07-2.19,2.43,2.08-.06,6.36-5.13-16.43-24.58Z" transform="translate(-170.22 -205.73)"/><polygon class="cls-5" points="105.37 125.48 117.44 105.83 109.86 92.02 107.22 97.89 109.61 97.91 107.98 99.34 110.43 100.14 109.14 102.56 111.04 105.01 108.97 106.6 110.49 108.75 108.06 109.91 108.28 112.33 105.81 114.58 106.8 116.95 106.19 119.37 102.62 125.71 104.57 127.29 105.37 125.48"/><polyline class="cls-6" points="143.46 62.94 143.46 44 150.95 50.17 145.79 50.39 152.05 56.33 143.08 56.5"/><path class="cls-2" d="M207.85,278.93c8.18,11.44,19,134.3-8.39,185.23L316,367.32Z" transform="translate(-170.22 -205.73)"/><g id="light"><g id="lightbulb"><path class="cls-7" d="M235.73,372.29a12.76,12.76,0,0,1,13.41-12.74,13.39,13.39,0,0,1,12.06,11.62,12.82,12.82,0,0,1-1.49,7.2,30.32,30.32,0,0,0-3.94,14.45v.67H241.21v-.39a31.53,31.53,0,0,0-4-14.81A12.65,12.65,0,0,1,235.73,372.29Z" transform="translate(-170.22 -205.73)"/><line class="cls-8" x1="71.78" y1="190.64" x2="84.76" y2="190.64"/><line class="cls-8" x1="71.78" y1="192.69" x2="84.76" y2="192.69"/><line class="cls-8" x1="71.78" y1="194.74" x2="84.76" y2="194.74"/></g><path class="cls-4" d="M245.65,362.77s0-.08,0-.1S245.65,362.79,245.65,362.77Z" transform="translate(-170.22 -205.73)"/><polygon class="cls-4" points="75.23 157.25 75.23 157.22 75.21 157.3 75.23 157.25"/><path class="cls-4" d="M245.26,363c0,.14.07,0,.11,0v-.08S245.29,363,245.26,363Z" transform="translate(-170.22 -205.73)"/><path class="cls-4" d="M245.11,362.7c0,.06,0,.05,0,0h0Z" transform="translate(-170.22 -205.73)"/><path class="cls-4" d="M245.13,362.71s0,0,0,0Z" transform="translate(-170.22 -205.73)"/><path class="cls-4" d="M245,362.75l0-.05s0,0,0-.06S245,362.7,245,362.75Z" transform="translate(-170.22 -205.73)"/><path class="cls-4" d="M245,362.85v0S245,362.81,245,362.85Z" transform="translate(-170.22 -205.73)"/><path class="cls-4" d="M245.07,362.79l0,0s0,.07,0,0S245.06,362.82,245.07,362.79Z" transform="translate(-170.22 -205.73)"/><path class="cls-4" d="M245.09,362.8s0,.05,0,.1S245.14,362.78,245.09,362.8Z" transform="translate(-170.22 -205.73)"/><path class="cls-4" d="M245.27,363.15l0,0v0S245.26,363.1,245.27,363.15Z" transform="translate(-170.22 -205.73)"/><path class="cls-4" d="M244.85,362.71s0,.07,0,.11v0A.25.25,0,0,1,244.85,362.71Z" transform="translate(-170.22 -205.73)"/><path class="cls-4" d="M244.89,362.82l0,.06S244.9,362.85,244.89,362.82Z" transform="translate(-170.22 -205.73)"/><polygon class="cls-4" points="74.84 157.28 74.87 157.17 74.83 157.29 74.84 157.28"/><polygon class="cls-4" points="74.52 157.01 74.52 156.93 74.51 157.05 74.52 157.01"/><path class="cls-4" d="M244.67,362.77c0-.06,0-.09,0-.13s0,.07,0,.12S244.63,362.73,244.67,362.77Z" transform="translate(-170.22 -205.73)"/><path class="cls-4" d="M244.59,362.83s0-.05,0-.07S244.59,362.79,244.59,362.83Z" transform="translate(-170.22 -205.73)"/><path class="cls-4" d="M244.82,362.88a.3.3,0,0,0,0-.08l0,.08Z" transform="translate(-170.22 -205.73)"/><path class="cls-4" d="M244.81,362.88Z" transform="translate(-170.22 -205.73)"/><path class="cls-4" d="M244.82,362.88Z" transform="translate(-170.22 -205.73)"/><path class="cls-4" d="M245,363c0,.05,0,.11,0,.17S245,363,245,363Z" transform="translate(-170.22 -205.73)"/><path class="cls-4" d="M244.86,363h0s0-.05,0-.08Z" transform="translate(-170.22 -205.73)"/><polygon class="cls-4" points="74.63 157.28 74.64 157.25 74.63 157.25 74.63 157.28"/><path class="cls-4" d="M244.66,362.89s0,.05,0,.06h.06S244.68,362.88,244.66,362.89Z" transform="translate(-170.22 -205.73)"/><path class="cls-4" d="M244.74,362.89h0S244.74,362.91,244.74,362.89Z" transform="translate(-170.22 -205.73)"/><path class="cls-4" d="M244.47,363h0Z" transform="translate(-170.22 -205.73)"/><path class="cls-4" d="M244.7,363s0,0,0,0l0,0S244.7,363,244.7,363Z" transform="translate(-170.22 -205.73)"/><path class="cls-4" d="M244.55,362.88l0,0S244.55,362.86,244.55,362.88Z" transform="translate(-170.22 -205.73)"/><path class="cls-4" d="M244.72,362.88h0S244.72,362.87,244.72,362.88Z" transform="translate(-170.22 -205.73)"/><path class="cls-4" d="M244.72,362.88v.05a0,0,0,0,0,0,0Z" transform="translate(-170.22 -205.73)"/><path class="cls-4" d="M244.59,363.53c0-.08,0-.16,0-.09a1.41,1.41,0,0,0-.15-.44.17.17,0,0,1,0,.12s.1.08.09.15,0,0-.07,0,0,.15.05.29l0-.06A.12.12,0,0,0,244.59,363.53Z" transform="translate(-170.22 -205.73)"/><path class="cls-4" d="M244.54,363v0s0,0-.08-.09a.33.33,0,0,0,0,.1h.07Z" transform="translate(-170.22 -205.73)"/><path class="cls-4" d="M244.6,363c0,.08,0,.13,0,.21s0-.08,0-.12,0-.05,0-.08,0,0,0,0l0,0h0v0s0,0,0,0h0l0,.06S244.58,363,244.6,363Z" transform="translate(-170.22 -205.73)"/><path class="cls-4" d="M245,363.31v0S245,363.31,245,363.31Z" transform="translate(-170.22 -205.73)"/><path class="cls-4" d="M245,363.26s0,0,0,0,0,0,0,.07a.09.09,0,0,0,0-.1h0a.66.66,0,0,1-.08-.13Z" transform="translate(-170.22 -205.73)"/><path class="cls-4" d="M244.79,363.14l0,.05,0,.07v-.05S244.79,363.17,244.79,363.14Z" transform="translate(-170.22 -205.73)"/><polygon class="cls-4" points="74.23 157.22 74.21 157.13 74.22 157.26 74.23 157.22"/><polygon class="cls-4" points="74.17 157.25 74.15 157.18 74.15 157.22 74.17 157.25"/><path class="cls-4" d="M242.14,365.69v0Z" transform="translate(-170.22 -205.73)"/><path class="cls-4" d="M242.2,365.63l0,0Z" transform="translate(-170.22 -205.73)"/><path class="cls-4" d="M243,363.7c-.06-.05-.15-.13-.09-.05l0,.06S242.94,363.69,243,363.7Z" transform="translate(-170.22 -205.73)"/><path class="cls-4" d="M242.45,364.75l0,0,0-.07Z" transform="translate(-170.22 -205.73)"/><path class="cls-4" d="M242.68,365l-.06,0Z" transform="translate(-170.22 -205.73)"/><path class="cls-4" d="M241.86,366.14l.06.06S241.9,366.17,241.86,366.14Z" transform="translate(-170.22 -205.73)"/><path class="cls-4" d="M243.77,363.26l-.06,0S243.8,363.33,243.77,363.26Z" transform="translate(-170.22 -205.73)"/><path class="cls-4" d="M241.49,365l0,.05S241.51,365.05,241.49,365Z" transform="translate(-170.22 -205.73)"/><path class="cls-4" d="M243.66,363.25l0,0s0,0,0,0S243.65,363.19,243.66,363.25Z" transform="translate(-170.22 -205.73)"/><path class="cls-4" d="M240.7,367.6h0Z" transform="translate(-170.22 -205.73)"/><path class="cls-4" d="M239.66,367.64s0,0,0,0S239.66,367.62,239.66,367.64Z" transform="translate(-170.22 -205.73)"/><path class="cls-4" d="M244.13,363s0,0,0,0Z" transform="translate(-170.22 -205.73)"/><path class="cls-4" d="M244.31,363.33a.08.08,0,0,0,0,0A.08.08,0,0,1,244.31,363.33Z" transform="translate(-170.22 -205.73)"/><path class="cls-4" d="M243.79,363.8Z" transform="translate(-170.22 -205.73)"/><path class="cls-4" d="M244.16,363.06h0Z" transform="translate(-170.22 -205.73)"/><path class="cls-4" d="M244.14,363h0S244.15,363,244.14,363Z" transform="translate(-170.22 -205.73)"/><path class="cls-4" d="M244.11,363.05h0Z" transform="translate(-170.22 -205.73)"/><path class="cls-4" d="M241.08,366.63h0S241.09,366.65,241.08,366.63Z" transform="translate(-170.22 -205.73)"/><polygon class="cls-4" points="72.98 158.91 72.98 158.9 72.98 158.9 72.98 158.91"/><path class="cls-4" d="M243.21,364.71c-.05-.1,0-.09,0-.08l-.16-.19Z" transform="translate(-170.22 -205.73)"/><path class="cls-4" d="M242,365.88l.08,0c.07.11,0,.1.12.15-.2-.18.06-.1-.14-.29l.06,0a0,0,0,0,0,0,0c.12.06-.13-.16-.06-.17a.12.12,0,0,1,.08.05l0-.07s0,0,0,0l0-.06h0s-.06-.1-.08-.12,0,0,.05,0l0-.07c.06,0,.09.11.07.12.22.16,0-.07.13,0v.05c.13.09.1,0,.2.08s-.23-.12-.25-.19,0,0,0-.05.06,0,.07,0l.09.09s0-.09-.08-.14.1.06.16.11-.13-.09-.11-.15.05,0,0-.13.05.06.08.08l-.05-.09,0,0s-.08-.09-.09-.14.19.11.11,0a1,1,0,0,1,.09.1,1.6,1.6,0,0,0-.08-.23l.08,0a.56.56,0,0,1-.17-.25l-.09-.06v-.09a.31.31,0,0,1,.08.1l0,0a.36.36,0,0,1,.13.14l-.07,0a1.33,1.33,0,0,0,.14.19v0l0,.05s0,0,0-.05l.11.1,0,0,.11,0c-.06-.14-.17-.32-.14-.42a1,1,0,0,0,.18.23c-.1-.09,0,.08-.05.09s.06,0,.06.06l0-.13c.06.07.06,0,.1.07-.14-.15,0-.14-.07-.2s.09.1.05.11c.12.1-.11-.21,0-.13s0,0,0,0,0-.06.07,0h0c.05,0,.13-.1,0-.24l.14.2-.26-.52a3.06,3.06,0,0,1,.32.48s.05,0,0,0a1,1,0,0,1-.14-.17,1.82,1.82,0,0,0,.19.14s-.15-.21-.13-.22l.14.21-.09-.21a1.15,1.15,0,0,0,.15.2s0,0,0-.05l-.05,0c.07,0-.13-.29-.07-.32s.14.25.18.26a3.14,3.14,0,0,1-.25-.61l0,0v-.08l.25.64c.05,0,.05.06.07,0a.09.09,0,0,1,0,.1h.09c-.08-.11,0-.14-.09-.24v.16c-.08-.11-.17-.34-.11-.35a1.57,1.57,0,0,1,.14.25c0-.05,0-.11,0-.08l0,.07s-.05-.17,0-.08.12.13.08.06a5,5,0,0,1-.39-.64s.14.1.19.15.11.27.18.35a.23.23,0,0,1,0-.09s.05.1.06.07.06,0,0-.11,0,0,.06,0a.77.77,0,0,1-.1-.33.36.36,0,0,0,0,.09c.06,0,.11,0,.16,0a.26.26,0,0,1,.08.11s0-.07,0-.08,0,0,.06.15a.25.25,0,0,1,0-.17c-.06-.11-.07,0-.07.05a.69.69,0,0,1-.08-.42c0-.06.06.09.06.07s-.05-.3.07-.22a1.19,1.19,0,0,1,.12.26c0,.06-.08,0-.1,0l0,0s0,.07,0,.05.15,0,.24,0a.25.25,0,0,0,0-.12l0,0c0-.07,0-.13,0-.15s0-.17.06-.15l.05.12s-.05-.06-.05,0,.11.13.08,0l-.06-.07c0-.07,0-.2,0-.17s0,0-.07-.12c.08.16-.1,0,0,.19-.09-.14-.07-.05-.16-.16s0,.07,0,.06v0h0a.1.1,0,0,1,0,.05c0,.09,0,.11,0,.16s0,0,0-.08v.08c0-.09-.1-.12-.08-.19h0s-.08,0-.08,0,0,.11,0,0l0,.08v0c-.06,0-.06.19-.19.07,0,0,0,.06-.06.06l0-.07s-.11,0-.08.05c-.13-.17-.14,0-.2,0l0,.09s0,.05-.06.11l0,.07c0,.08-.11,0-.15,0s0,0,0,0c-.17-.14,0,.19-.17.11s0,0,0,0h0l0,0a.05.05,0,0,0,0,0,.08.08,0,0,0,0,.06l-.06-.08h0s0,0,.06.1a.14.14,0,0,0,0,.06c-.1-.12,0,.07-.12-.06,0,.08,0,.1.06.24s0,0,0,0,0,0,0,0l-.08-.09.07.15a.28.28,0,0,1-.14-.16c0,.15,0,.07,0,.22l0-.07s0,.11,0,.07-.17.11-.33.06c.16.17-.11,0,0,.1,0,0-.07-.06-.08-.1s-.12,0-.05.12c0,0-.05-.07-.07-.09s0,.05,0,0,0,0,0-.07.07.18.17.3c-.07,0-.07,0,0,.07s-.09-.07-.07-.1-.14,0-.06.11,0,0,0,0-.05,0-.07.05h0c.09.12,0,.05,0,.08h0c-.13,0,0,.06-.13,0l.07.07c.14.15-.13,0-.11,0l.05,0c0,.07-.24-.15-.28-.15l0,0c-.13-.05.09.09.08.14s-.12-.13-.15-.11.09.21,0,.16c0,0,.09.05.1.1s-.2-.07-.1.06a.05.05,0,0,1,0,0c0,.05,0,.11,0,.18-.26-.21,0,.22-.21,0l0,.06,0,0c-.05,0,0,.09,0,.15a.11.11,0,0,1-.05,0c-.1,0-.09,0,0,.17l-.08-.06s-.19,0-.15.11,0,0,0,0c0,.14-.34,0-.08.23l0,.09c.06,0,.11.11.18.12s-.13,0-.12-.05h0c-.14-.13-.1,0-.2-.06-.07.12-.23.16-.32.25l.13.08,0,0s-.11-.06-.08-.08,0,.08.05.1-.13-.12-.14-.11v0h0c0,.05.09.09.06.11s-.08,0-.09,0h0l0,0,.1.05c0,.05,0,0,.09.1-.19-.09-.18.12-.24.1s0,.1,0,.13.13.08.1.1c-.21-.16-.13,0-.31-.1.12.05,0,.11.15.17,0,0-.09-.05-.15-.07s-.15.1-.17.19a.42.42,0,0,1,.12.08l-.17-.05s.16.12,0,.08c0,0,.07,0,.07,0-.24.05-.06.37-.42.36.07,0,.06,0,.06.05s.07,0,.12.06h-.16c.11.08,0,.08.08.14v0a4.45,4.45,0,0,0,.48.22c-.13-.11.26.05.08-.12,0,0,0,0,.09.06s-.08-.08,0-.09l0,0c0-.09.11-.08.21-.13l-.09-.05a.12.12,0,0,1,.08,0c-.11-.1,0,0-.16-.06.18.08.08-.12.27,0,0,0-.1-.05-.08-.08l.06,0-.06-.05s.09,0,.13.05,0,0,0,0,0-.08.05-.07h-.05c0-.11.12-.15.07-.29l0,0c0-.1.07,0,.07-.1h0s0-.06,0-.08.1,0,.14.09c0-.11,0-.07-.15-.2l.07,0c0-.05-.08-.07-.07-.11s.1,0,.15.12-.07-.19.15-.08c-.15-.14-.13,0-.16-.05s-.11-.11-.08-.12.24.12.27.07a0,0,0,0,1,0,0c.06,0,0-.08.06-.05-.1-.09,0,0-.1-.12v.06c0-.05-.15-.18,0-.17l.06.08s0,0,0,0,0,.07.07.17-.06-.12.07,0c-.16-.15.06,0,0-.17l.07.06s0-.05,0-.06l.08.09c-.06-.08.11,0,.09-.05s-.1-.06-.18-.08.23.12.25,0-.08,0-.1,0a.23.23,0,0,1,.11,0c0-.06-.08-.05-.11-.1s0-.06,0-.1l.07.06c.09,0-.14-.14-.05-.14l.09.1v-.05l.08.08c-.05-.08,0-.07,0-.08s-.13-.11-.11-.14.06.07.08,0,.09.1,0,.06l.06.06c.07,0,0,0,.06,0h0l-.06-.13a.23.23,0,0,1,.07.07s0-.05,0-.07a.61.61,0,0,1,.14.14l0-.1s.09,0,.1.07-.06-.16,0-.16a.05.05,0,0,1,0,0s.13,0,.08-.09l.13.08c0-.05-.16-.09-.16-.17s.1.06.14.08-.12-.19,0-.14S242,365.86,242,365.88Zm.27-.38s0,.07,0,0S242.24,365.48,242.27,365.5Zm.35-.65s0,0,0,0S242.6,364.83,242.62,364.85Zm1.39-1.68Zm.06,0s0,0,0,0,0,0,0,0S244.07,363.21,244.07,363.19Zm-3.59,3.17h0S240.5,366.38,240.48,366.36Z" transform="translate(-170.22 -205.73)"/><path class="cls-4" d="M242.65,365l0,0S242.63,365,242.65,365Z" transform="translate(-170.22 -205.73)"/><polygon class="cls-4" points="71.63 160.4 71.63 160.4 71.64 160.41 71.63 160.4"/><path class="cls-4" d="M243.83,364.22l0,0S243.81,364.22,243.83,364.22Z" transform="translate(-170.22 -205.73)"/><path class="cls-4" d="M244.25,362.94l0,0s0,0,0,0S244.24,362.94,244.25,362.94Z" transform="translate(-170.22 -205.73)"/><path class="cls-4" d="M244.68,363.43h0v0S244.65,363.42,244.68,363.43Z" transform="translate(-170.22 -205.73)"/><path class="cls-4" d="M244.38,363.23c0,.08,0,0,.05,0h0C244.4,363.15,244.39,363.19,244.38,363.23Z" transform="translate(-170.22 -205.73)"/><path class="cls-4" d="M244.43,363.25h0S244.44,363.24,244.43,363.25Z" transform="translate(-170.22 -205.73)"/><path class="cls-4" d="M244.11,363.12s0-.1,0-.08S244.08,363.19,244.11,363.12Z" transform="translate(-170.22 -205.73)"/><polygon class="cls-4" points="74.26 157.75 74.22 157.66 74.24 157.74 74.26 157.75"/><path class="cls-4" d="M244.31,363.47h0v0S244.3,363.44,244.31,363.47Z" transform="translate(-170.22 -205.73)"/><path class="cls-4" d="M244.35,363.44s0,0,0,0Z" transform="translate(-170.22 -205.73)"/><polygon class="cls-4" points="74.23 157.79 74.22 157.78 74.19 157.78 74.23 157.79"/><path class="cls-4" d="M244,363.58l0,0s0,.05,0,0A.2.2,0,0,0,244,363.58Z" transform="translate(-170.22 -205.73)"/><path class="cls-4" d="M244.2,363.79a.09.09,0,0,1,0-.06l.05.11Z" transform="translate(-170.22 -205.73)"/><path class="cls-4" d="M244.13,363.86s0,.1,0,.08S244.16,363.87,244.13,363.86Z" transform="translate(-170.22 -205.73)"/><polygon class="cls-4" points="73.39 158.22 73.4 158.21 73.3 158.04 73.39 158.22"/><path class="cls-4" d="M243.51,364.58c.06,0-.06-.11,0-.08s0,0-.07-.06S243.43,364.48,243.51,364.58Z" transform="translate(-170.22 -205.73)"/><path class="cls-4" d="M243.44,364.44v0Z" transform="translate(-170.22 -205.73)"/><polygon class="cls-4" points="69.3 161.95 69.25 161.95 69.32 161.97 69.3 161.95"/><path class="cls-4" d="M239.62,367.79l-.11-.05.09.07S239.6,367.79,239.62,367.79Z" transform="translate(-170.22 -205.73)"/><path class="cls-4" d="M242.5,365.63l0,0s0,0,0,0Z" transform="translate(-170.22 -205.73)"/><polygon class="cls-4" points="71.99 160.07 72 160.07 71.9 160 71.99 160.07"/><path class="cls-4" d="M242.13,366.1s0,0,0,0S242,366,242.13,366.1Z" transform="translate(-170.22 -205.73)"/><path class="cls-9" d="M246.84,393.08s-4.35-12.62-2.22-18.61a1.21,1.21,0,0,1,1.73-.67c2.09,1.19,2.61,2.39,2.5,3.33a1.14,1.14,0,0,1-2.23.12c-.26-1.09,0-2.53,2.49-3.67a1.35,1.35,0,0,1,1.69.4c1.81,2.83,1.32,11.76-2.31,19.1" transform="translate(-170.22 -205.73)"/><line class="cls-9" x1="62.28" y1="151.91" x2="67.25" y2="156.56"/><line class="cls-9" x1="68.82" y1="148.46" x2="71.45" y2="153.82"/><line class="cls-9" x1="77.49" y1="147.1" x2="77.48" y2="152.63"/><line class="cls-9" x1="86.18" y1="147.48" x2="83.83" y2="153.2"/><line class="cls-9" x1="88.12" y1="155.91" x2="93.59" y2="151.44"/><line class="cls-9" x1="64.2" y1="161.43" x2="58.25" y2="158.43"/><line class="cls-9" x1="90.85" y1="159.88" x2="97.51" y2="156.97"/></g></g><g id="Layer_3" data-name="Layer 3"><path class="cls-10" d="M439.51,259.2s-45.35-.54-79.65-24l3.36-5s-1.8-21-47.21-24.53c-45.4,3.54-47.2,24.53-47.2,24.53l3.35,5c-34.29,23.45-79.65,24-79.65,24L178,287.06l15.52-5.28,4.22,13.75,9.22-16.28c37-3.47,87.32-29.56,86.64-39.91l-5.78.16c8.75-10.81,25.35-12.88,28.21-11.89,2.87-1,19.47,1.08,28.22,11.89l-5.78-.16c-.68,10.35,49.65,36.44,86.64,39.91l9.22,16.28,4.21-13.75,15.53,5.28Z" transform="translate(-170.22 -205.73)"/><path class="cls-11" d="M457.57,470.92l-5.51-.72c5.45-5.28,9.75-19.81,9.75-19.81L444,455.17s-.33-1.32-3.3-10.89c-1.16,4.62-15.52,24.11-15.52,24.11,15.53,10.25-58.43,54.06-91,52.84-5.93-8.59-15.71-5.62-17.66-4.92h0s-12-4.66-18.63,4.92c-32.57,1.22-106.52-42.59-91-52.84,0,0-14.37-19.49-15.52-24.11-3,9.57-3.31,10.89-3.31,10.89l-17.83-4.78s4.29,14.53,9.74,19.81l-5.51.72a2.41,2.41,0,0,0-2,3.13c7.5,24.18,64.78,71.72,133.64,72.45,0,0,1.6-9.25,9.88-7.93,8.28-1.32,9.89,7.93,9.89,7.93,68.86-.73,126.13-48.27,133.64-72.45A2.41,2.41,0,0,0,457.57,470.92Z" transform="translate(-170.22 -205.73)"/></g></svg>